<svg xmlns="http://www.w3.org/2000/svg" xmlns:xlink="http://www.w3.org/1999/xlink" width="500" zoomAndPan="magnify" viewBox="0 0 375 374.999991" height="500" preserveAspectRatio="xMidYMid meet" version="1.0"><defs><g/><clipPath id="b76e15acf9"><path d="M 32.765625 144.382812 L 342.234375 144.382812 L 342.234375 222.828125 L 32.765625 222.828125 Z M 32.765625 144.382812 " clip-rule="nonzero"/></clipPath><clipPath id="655701a460"><path d="M 32.785156 144.382812 L 342.492188 144.382812 L 342.492188 223.132812 L 32.785156 223.132812 Z M 32.785156 144.382812 " clip-rule="nonzero"/></clipPath><clipPath id="8034f6c66c"><path d="M 145.167969 211.421875 L 229.832031 211.421875 L 229.832031 260.519531 L 145.167969 260.519531 Z M 145.167969 211.421875 " clip-rule="nonzero"/></clipPath></defs><rect x="-37.5" width="450" fill="#ffffff" y="-37.499999" height="449.999989" fill-opacity="1"/><rect x="-37.5" width="450" fill="#ffffff" y="-37.499999" height="449.999989" fill-opacity="1"/><rect x="-37.5" width="450" fill="#ffffff" y="-37.499999" height="449.999989" fill-opacity="1"/><g clip-path="url(#b76e15acf9)"><path fill="#ffffff" d="M 32.765625 144.382812 L 342.140625 144.382812 L 342.140625 223.484375 L 32.765625 223.484375 Z M 32.765625 144.382812 " fill-opacity="1" fill-rule="nonzero"/></g><g clip-path="url(#655701a460)"><path stroke-linecap="butt" transform="matrix(0.750682, 0, 0, 0.753025, 32.784597, 144.381583)" fill="none" stroke-linejoin="miter" d="M 0.0007449 0.00163232 L 412.568539 0.00163232 L 412.568539 104.579766 L 0.0007449 104.579766 L 0.0007449 0.00163232 " stroke="#1a2f4f" stroke-width="2" stroke-opacity="1" stroke-miterlimit="4"/></g><g clip-path="url(#8034f6c66c)"><path fill="#ffffff" d="M 145.167969 211.421875 L 229.542969 211.421875 L 229.542969 260.640625 L 145.167969 260.640625 Z M 145.167969 211.421875 " fill-opacity="1" fill-rule="nonzero"/></g><g fill="#1a2f4f" fill-opacity="1"><g transform="translate(40.892733, 194.811824)"><g><path d="M 33.890625 -3.953125 C 33.890625 -2.796875 34.128906 -1.992188 34.609375 -1.546875 C 35.097656 -1.109375 35.9375 -0.890625 37.125 -0.890625 L 37.125 0 C 34.519531 -0.113281 32.820312 -0.171875 32.03125 -0.171875 C 31.226562 -0.171875 29.640625 -0.113281 27.265625 0 L 27.265625 -0.890625 C 28.316406 -0.890625 29.046875 -1.109375 29.453125 -1.546875 C 29.859375 -1.992188 30.0625 -2.796875 30.0625 -3.953125 L 30.0625 -16.25 C 30.0625 -17.320312 30 -18.191406 29.875 -18.859375 C 29.75 -19.523438 29.453125 -20.070312 28.984375 -20.5 C 28.515625 -20.925781 27.800781 -21.140625 26.84375 -21.140625 C 25.757812 -21.140625 24.773438 -20.796875 23.890625 -20.109375 C 23.015625 -19.429688 22.328125 -18.503906 21.828125 -17.328125 C 21.335938 -16.148438 21.09375 -14.851562 21.09375 -13.4375 L 21.09375 -3.953125 C 21.09375 -2.796875 21.332031 -1.992188 21.8125 -1.546875 C 22.300781 -1.109375 23.140625 -0.890625 24.328125 -0.890625 L 24.328125 0 C 21.722656 -0.113281 20.019531 -0.171875 19.21875 -0.171875 C 18.425781 -0.171875 16.835938 -0.113281 14.453125 0 L 14.453125 -0.890625 C 15.503906 -0.890625 16.234375 -1.109375 16.640625 -1.546875 C 17.054688 -1.992188 17.265625 -2.796875 17.265625 -3.953125 L 17.265625 -16.25 C 17.265625 -17.320312 17.203125 -18.191406 17.078125 -18.859375 C 16.953125 -19.523438 16.65625 -20.070312 16.1875 -20.5 C 15.71875 -20.925781 15 -21.140625 14.03125 -21.140625 C 12.957031 -21.140625 11.976562 -20.796875 11.09375 -20.109375 C 10.21875 -19.429688 9.53125 -18.5 9.03125 -17.3125 C 8.539062 -16.125 8.296875 -14.816406 8.296875 -13.390625 L 8.296875 -3.953125 C 8.296875 -2.796875 8.5 -1.992188 8.90625 -1.546875 C 9.320312 -1.109375 10.050781 -0.890625 11.09375 -0.890625 L 11.09375 0 C 8.71875 -0.113281 7.132812 -0.171875 6.34375 -0.171875 C 5.539062 -0.171875 3.835938 -0.113281 1.234375 0 L 1.234375 -0.890625 C 2.421875 -0.890625 3.253906 -1.109375 3.734375 -1.546875 C 4.222656 -1.992188 4.46875 -2.796875 4.46875 -3.953125 L 4.46875 -17.265625 C 4.46875 -18.566406 4.222656 -19.515625 3.734375 -20.109375 C 3.253906 -20.710938 2.421875 -21.015625 1.234375 -21.015625 L 1.234375 -21.90625 C 2.140625 -21.820312 3.019531 -21.78125 3.875 -21.78125 C 5.65625 -21.78125 7.128906 -21.976562 8.296875 -22.375 L 8.296875 -17.359375 C 8.972656 -19.109375 9.9375 -20.398438 11.1875 -21.234375 C 12.4375 -22.078125 13.796875 -22.5 15.265625 -22.5 C 17.191406 -22.5 18.664062 -21.960938 19.6875 -20.890625 C 20.394531 -20.148438 20.835938 -19.015625 21.015625 -17.484375 C 21.722656 -19.265625 22.695312 -20.546875 23.9375 -21.328125 C 25.1875 -22.109375 26.566406 -22.5 28.078125 -22.5 C 30.003906 -22.5 31.476562 -21.960938 32.5 -20.890625 C 33.007812 -20.316406 33.367188 -19.585938 33.578125 -18.703125 C 33.785156 -17.828125 33.890625 -16.695312 33.890625 -15.3125 Z M 33.890625 -3.953125 "/></g></g></g><g fill="#1a2f4f" fill-opacity="1"><g transform="translate(77.391113, 194.811824)"><g><path d="M 11.65625 -22.5 C 14.539062 -22.5 16.867188 -21.539062 18.640625 -19.625 C 20.421875 -17.707031 21.3125 -14.8125 21.3125 -10.9375 C 21.3125 -7.050781 20.421875 -4.15625 18.640625 -2.25 C 16.867188 -0.351562 14.539062 0.59375 11.65625 0.59375 C 8.757812 0.59375 6.425781 -0.351562 4.65625 -2.25 C 2.882812 -4.15625 2 -7.050781 2 -10.9375 C 2 -14.8125 2.882812 -17.707031 4.65625 -19.625 C 6.425781 -21.539062 8.757812 -22.5 11.65625 -22.5 Z M 11.65625 -21.640625 C 9.957031 -21.640625 8.609375 -20.769531 7.609375 -19.03125 C 6.617188 -17.289062 6.125 -14.59375 6.125 -10.9375 C 6.125 -7.269531 6.617188 -4.570312 7.609375 -2.84375 C 8.609375 -1.113281 9.957031 -0.25 11.65625 -0.25 C 13.351562 -0.25 14.695312 -1.113281 15.6875 -2.84375 C 16.6875 -4.570312 17.1875 -7.269531 17.1875 -10.9375 C 17.1875 -14.59375 16.6875 -17.289062 15.6875 -19.03125 C 14.695312 -20.769531 13.351562 -21.640625 11.65625 -21.640625 Z M 11.65625 -21.640625 "/></g></g></g><g fill="#1a2f4f" fill-opacity="1"><g transform="translate(99.42627, 194.811824)"><g><path d="M 8 -3.953125 C 8 -2.796875 8.238281 -1.992188 8.71875 -1.546875 C 9.195312 -1.109375 10.035156 -0.890625 11.234375 -0.890625 L 11.234375 0 C 8.617188 -0.113281 6.898438 -0.171875 6.078125 -0.171875 C 5.253906 -0.171875 3.539062 -0.113281 0.9375 0 L 0.9375 -0.890625 C 2.125 -0.890625 2.957031 -1.109375 3.4375 -1.546875 C 3.925781 -1.992188 4.171875 -2.796875 4.171875 -3.953125 L 4.171875 -28.234375 C 4.171875 -29.546875 3.925781 -30.5 3.4375 -31.09375 C 2.957031 -31.6875 2.125 -31.984375 0.9375 -31.984375 L 0.9375 -32.875 C 1.8125 -32.789062 2.691406 -32.75 3.578125 -32.75 C 5.359375 -32.75 6.832031 -32.945312 8 -33.34375 Z M 8 -3.953125 "/></g></g></g><g fill="#1a2f4f" fill-opacity="1"><g transform="translate(110.316223, 194.811824)"><g><path d="M 8 -3.953125 C 8 -2.796875 8.238281 -1.992188 8.71875 -1.546875 C 9.195312 -1.109375 10.035156 -0.890625 11.234375 -0.890625 L 11.234375 0 C 8.617188 -0.113281 6.898438 -0.171875 6.078125 -0.171875 C 5.253906 -0.171875 3.539062 -0.113281 0.9375 0 L 0.9375 -0.890625 C 2.125 -0.890625 2.957031 -1.109375 3.4375 -1.546875 C 3.925781 -1.992188 4.171875 -2.796875 4.171875 -3.953125 L 4.171875 -28.234375 C 4.171875 -29.546875 3.925781 -30.5 3.4375 -31.09375 C 2.957031 -31.6875 2.125 -31.984375 0.9375 -31.984375 L 0.9375 -32.875 C 1.8125 -32.789062 2.691406 -32.75 3.578125 -32.75 C 5.359375 -32.75 6.832031 -32.945312 8 -33.34375 Z M 8 -3.953125 "/></g></g></g><g fill="#1a2f4f" fill-opacity="1"><g transform="translate(121.206176, 194.811824)"><g><path d="M 6.09375 -32.53125 C 6.820312 -32.53125 7.457031 -32.257812 8 -31.71875 C 8.539062 -31.1875 8.8125 -30.550781 8.8125 -29.8125 C 8.8125 -29.070312 8.539062 -28.429688 8 -27.890625 C 7.457031 -27.359375 6.820312 -27.09375 6.09375 -27.09375 C 5.351562 -27.09375 4.710938 -27.359375 4.171875 -27.890625 C 3.628906 -28.429688 3.359375 -29.070312 3.359375 -29.8125 C 3.359375 -30.550781 3.628906 -31.1875 4.171875 -31.71875 C 4.710938 -32.257812 5.351562 -32.53125 6.09375 -32.53125 Z M 8.296875 -3.953125 C 8.296875 -2.796875 8.535156 -1.992188 9.015625 -1.546875 C 9.492188 -1.109375 10.332031 -0.890625 11.53125 -0.890625 L 11.53125 0 C 8.914062 -0.113281 7.195312 -0.171875 6.375 -0.171875 C 5.550781 -0.171875 3.835938 -0.113281 1.234375 0 L 1.234375 -0.890625 C 2.421875 -0.890625 3.253906 -1.109375 3.734375 -1.546875 C 4.222656 -1.992188 4.46875 -2.796875 4.46875 -3.953125 L 4.46875 -17.265625 C 4.46875 -18.566406 4.222656 -19.515625 3.734375 -20.109375 C 3.253906 -20.710938 2.421875 -21.015625 1.234375 -21.015625 L 1.234375 -21.90625 C 2.140625 -21.820312 3.019531 -21.78125 3.875 -21.78125 C 5.65625 -21.78125 7.128906 -21.976562 8.296875 -22.375 Z M 8.296875 -3.953125 "/></g></g></g><g fill="#1a2f4f" fill-opacity="1"><g transform="translate(132.393913, 194.811824)"><g><path d="M 19.6875 -5.109375 C 19.175781 -3.546875 18.21875 -2.203125 16.8125 -1.078125 C 15.414062 0.0351562 13.722656 0.59375 11.734375 0.59375 C 9.722656 0.59375 7.976562 0.132812 6.5 -0.78125 C 5.03125 -1.707031 3.90625 -3 3.125 -4.65625 C 2.34375 -6.3125 1.953125 -8.234375 1.953125 -10.421875 C 1.953125 -12.890625 2.347656 -15.03125 3.140625 -16.84375 C 3.941406 -18.65625 5.0625 -20.050781 6.5 -21.03125 C 7.945312 -22.007812 9.632812 -22.5 11.5625 -22.5 C 14.113281 -22.5 16.078125 -21.722656 17.453125 -20.171875 C 18.828125 -18.628906 19.515625 -16.285156 19.515625 -13.140625 L 6.203125 -13.140625 C 6.117188 -12.347656 6.078125 -11.441406 6.078125 -10.421875 C 6.078125 -8.546875 6.378906 -6.910156 6.984375 -5.515625 C 7.597656 -4.128906 8.410156 -3.0625 9.421875 -2.3125 C 10.429688 -1.5625 11.488281 -1.1875 12.59375 -1.1875 C 13.945312 -1.1875 15.148438 -1.507812 16.203125 -2.15625 C 17.253906 -2.8125 18.132812 -3.90625 18.84375 -5.4375 Z M 11.390625 -21.6875 C 10.066406 -21.6875 8.921875 -21.035156 7.953125 -19.734375 C 6.984375 -18.429688 6.390625 -16.503906 6.171875 -13.953125 L 15.4375 -13.953125 C 15.5 -16.160156 15.179688 -18 14.484375 -19.46875 C 13.785156 -20.945312 12.753906 -21.6875 11.390625 -21.6875 Z M 11.390625 -21.6875 "/></g></g></g><g fill="#1a2f4f" fill-opacity="1"><g transform="translate(152.642431, 194.811824)"><g/></g></g><g fill="#1a2f4f" fill-opacity="1"><g transform="translate(161.958446, 194.811824)"><g><path d="M 8.84375 -22.5 C 9.863281 -22.5 10.769531 -22.34375 11.5625 -22.03125 C 12.363281 -21.71875 13.003906 -21.347656 13.484375 -20.921875 C 13.796875 -20.691406 14.050781 -20.578125 14.25 -20.578125 C 14.757812 -20.578125 15.070312 -21.203125 15.1875 -22.453125 L 16.15625 -22.453125 C 16.039062 -21.066406 15.984375 -18.65625 15.984375 -15.21875 L 15.015625 -15.21875 C 14.703125 -17.09375 14.097656 -18.640625 13.203125 -19.859375 C 12.304688 -21.078125 10.984375 -21.6875 9.234375 -21.6875 C 8.210938 -21.6875 7.375 -21.394531 6.71875 -20.8125 C 6.0625 -20.238281 5.734375 -19.441406 5.734375 -18.421875 C 5.734375 -17.421875 6.070312 -16.585938 6.75 -15.921875 C 7.4375 -15.253906 8.53125 -14.457031 10.03125 -13.53125 C 10.289062 -13.382812 10.675781 -13.140625 11.1875 -12.796875 C 12.488281 -11.953125 13.535156 -11.203125 14.328125 -10.546875 C 15.128906 -9.890625 15.773438 -9.132812 16.265625 -8.28125 C 16.765625 -7.4375 17.015625 -6.460938 17.015625 -5.359375 C 17.015625 -3.484375 16.3125 -2.019531 14.90625 -0.96875 C 13.5 0.0703125 11.773438 0.59375 9.734375 0.59375 C 8.460938 0.59375 7.34375 0.394531 6.375 0 C 5.75 -0.3125 5.171875 -0.691406 4.640625 -1.140625 C 4.523438 -1.253906 4.394531 -1.3125 4.25 -1.3125 C 4.050781 -1.3125 3.875 -1.171875 3.71875 -0.890625 C 3.5625 -0.609375 3.441406 -0.210938 3.359375 0.296875 L 2.375 0.296875 C 2.488281 -1.316406 2.546875 -4.148438 2.546875 -8.203125 L 3.53125 -8.203125 C 3.84375 -5.535156 4.410156 -3.539062 5.234375 -2.21875 C 6.054688 -0.90625 7.457031 -0.25 9.4375 -0.25 C 10.4375 -0.25 11.316406 -0.578125 12.078125 -1.234375 C 12.847656 -1.890625 13.234375 -2.910156 13.234375 -4.296875 C 13.234375 -5.398438 12.851562 -6.332031 12.09375 -7.09375 C 11.34375 -7.863281 10.117188 -8.789062 8.421875 -9.875 C 7.035156 -10.75 5.960938 -11.46875 5.203125 -12.03125 C 4.453125 -12.601562 3.820312 -13.300781 3.3125 -14.125 C 2.800781 -14.945312 2.546875 -15.910156 2.546875 -17.015625 C 2.546875 -18.796875 3.140625 -20.15625 4.328125 -21.09375 C 5.523438 -22.03125 7.03125 -22.5 8.84375 -22.5 Z M 8.84375 -22.5 "/></g></g></g><g fill="#1a2f4f" fill-opacity="1"><g transform="translate(179.697163, 194.811824)"><g><path d="M 14.796875 -22.5 C 16.304688 -22.5 17.660156 -22.085938 18.859375 -21.265625 C 20.066406 -20.441406 21.007812 -19.234375 21.6875 -17.640625 C 22.375 -16.054688 22.71875 -14.160156 22.71875 -11.953125 C 22.71875 -9.765625 22.367188 -7.722656 21.671875 -5.828125 C 20.972656 -3.929688 19.894531 -2.382812 18.4375 -1.1875 C 16.976562 0 15.15625 0.59375 12.96875 0.59375 C 11.894531 0.59375 10.914062 0.378906 10.03125 -0.046875 C 9.15625 -0.472656 8.476562 -1.023438 8 -1.703125 L 8 3.75 C 8 4.90625 8.335938 5.703125 9.015625 6.140625 C 9.691406 6.585938 10.710938 6.8125 12.078125 6.8125 L 12.078125 7.703125 L 11.09375 7.65625 C 8.457031 7.570312 6.742188 7.53125 5.953125 7.53125 C 5.273438 7.53125 3.742188 7.585938 1.359375 7.703125 L 1.359375 6.8125 C 2.410156 6.8125 3.140625 6.617188 3.546875 6.234375 C 3.960938 5.847656 4.171875 5.160156 4.171875 4.171875 L 4.171875 -17.265625 C 4.171875 -18.566406 3.925781 -19.515625 3.4375 -20.109375 C 2.957031 -20.710938 2.125 -21.015625 0.9375 -21.015625 L 0.9375 -21.90625 C 1.8125 -21.820312 2.691406 -21.78125 3.578125 -21.78125 C 5.359375 -21.78125 6.832031 -21.976562 8 -22.375 L 8 -17.859375 C 8.625 -19.335938 9.53125 -20.476562 10.71875 -21.28125 C 11.90625 -22.09375 13.265625 -22.5 14.796875 -22.5 Z M 12.5 -0.375 C 16.5625 -0.375 18.59375 -4.035156 18.59375 -11.359375 C 18.59375 -17.929688 16.945312 -21.21875 13.65625 -21.21875 C 12.375 -21.21875 11.222656 -20.753906 10.203125 -19.828125 C 9.179688 -18.910156 8.445312 -17.585938 8 -15.859375 L 8 -3.109375 C 8.394531 -2.285156 8.972656 -1.625 9.734375 -1.125 C 10.503906 -0.625 11.425781 -0.375 12.5 -0.375 Z M 12.5 -0.375 "/></g></g></g><g fill="#1a2f4f" fill-opacity="1"><g transform="translate(203.136092, 194.811824)"><g><path d="M 6.09375 -32.53125 C 6.820312 -32.53125 7.457031 -32.257812 8 -31.71875 C 8.539062 -31.1875 8.8125 -30.550781 8.8125 -29.8125 C 8.8125 -29.070312 8.539062 -28.429688 8 -27.890625 C 7.457031 -27.359375 6.820312 -27.09375 6.09375 -27.09375 C 5.351562 -27.09375 4.710938 -27.359375 4.171875 -27.890625 C 3.628906 -28.429688 3.359375 -29.070312 3.359375 -29.8125 C 3.359375 -30.550781 3.628906 -31.1875 4.171875 -31.71875 C 4.710938 -32.257812 5.351562 -32.53125 6.09375 -32.53125 Z M 8.296875 -3.953125 C 8.296875 -2.796875 8.535156 -1.992188 9.015625 -1.546875 C 9.492188 -1.109375 10.332031 -0.890625 11.53125 -0.890625 L 11.53125 0 C 8.914062 -0.113281 7.195312 -0.171875 6.375 -0.171875 C 5.550781 -0.171875 3.835938 -0.113281 1.234375 0 L 1.234375 -0.890625 C 2.421875 -0.890625 3.253906 -1.109375 3.734375 -1.546875 C 4.222656 -1.992188 4.46875 -2.796875 4.46875 -3.953125 L 4.46875 -17.265625 C 4.46875 -18.566406 4.222656 -19.515625 3.734375 -20.109375 C 3.253906 -20.710938 2.421875 -21.015625 1.234375 -21.015625 L 1.234375 -21.90625 C 2.140625 -21.820312 3.019531 -21.78125 3.875 -21.78125 C 5.65625 -21.78125 7.128906 -21.976562 8.296875 -22.375 Z M 8.296875 -3.953125 "/></g></g></g><g fill="#1a2f4f" fill-opacity="1"><g transform="translate(214.323822, 194.811824)"><g><path d="M 19.6875 -5.109375 C 19.175781 -3.546875 18.21875 -2.203125 16.8125 -1.078125 C 15.414062 0.0351562 13.722656 0.59375 11.734375 0.59375 C 9.722656 0.59375 7.976562 0.132812 6.5 -0.78125 C 5.03125 -1.707031 3.90625 -3 3.125 -4.65625 C 2.34375 -6.3125 1.953125 -8.234375 1.953125 -10.421875 C 1.953125 -12.890625 2.347656 -15.03125 3.140625 -16.84375 C 3.941406 -18.65625 5.0625 -20.050781 6.5 -21.03125 C 7.945312 -22.007812 9.632812 -22.5 11.5625 -22.5 C 14.113281 -22.5 16.078125 -21.722656 17.453125 -20.171875 C 18.828125 -18.628906 19.515625 -16.285156 19.515625 -13.140625 L 6.203125 -13.140625 C 6.117188 -12.347656 6.078125 -11.441406 6.078125 -10.421875 C 6.078125 -8.546875 6.378906 -6.910156 6.984375 -5.515625 C 7.597656 -4.128906 8.410156 -3.0625 9.421875 -2.3125 C 10.429688 -1.5625 11.488281 -1.1875 12.59375 -1.1875 C 13.945312 -1.1875 15.148438 -1.507812 16.203125 -2.15625 C 17.253906 -2.8125 18.132812 -3.90625 18.84375 -5.4375 Z M 11.390625 -21.6875 C 10.066406 -21.6875 8.921875 -21.035156 7.953125 -19.734375 C 6.984375 -18.429688 6.390625 -16.503906 6.171875 -13.953125 L 15.4375 -13.953125 C 15.5 -16.160156 15.179688 -18 14.484375 -19.46875 C 13.785156 -20.945312 12.753906 -21.6875 11.390625 -21.6875 Z M 11.390625 -21.6875 "/></g></g></g><g fill="#1a2f4f" fill-opacity="1"><g transform="translate(234.572347, 194.811824)"><g><path d="M 8.84375 -22.5 C 9.863281 -22.5 10.769531 -22.34375 11.5625 -22.03125 C 12.363281 -21.71875 13.003906 -21.347656 13.484375 -20.921875 C 13.796875 -20.691406 14.050781 -20.578125 14.25 -20.578125 C 14.757812 -20.578125 15.070312 -21.203125 15.1875 -22.453125 L 16.15625 -22.453125 C 16.039062 -21.066406 15.984375 -18.65625 15.984375 -15.21875 L 15.015625 -15.21875 C 14.703125 -17.09375 14.097656 -18.640625 13.203125 -19.859375 C 12.304688 -21.078125 10.984375 -21.6875 9.234375 -21.6875 C 8.210938 -21.6875 7.375 -21.394531 6.71875 -20.8125 C 6.0625 -20.238281 5.734375 -19.441406 5.734375 -18.421875 C 5.734375 -17.421875 6.070312 -16.585938 6.75 -15.921875 C 7.4375 -15.253906 8.53125 -14.457031 10.03125 -13.53125 C 10.289062 -13.382812 10.675781 -13.140625 11.1875 -12.796875 C 12.488281 -11.953125 13.535156 -11.203125 14.328125 -10.546875 C 15.128906 -9.890625 15.773438 -9.132812 16.265625 -8.28125 C 16.765625 -7.4375 17.015625 -6.460938 17.015625 -5.359375 C 17.015625 -3.484375 16.3125 -2.019531 14.90625 -0.96875 C 13.5 0.0703125 11.773438 0.59375 9.734375 0.59375 C 8.460938 0.59375 7.34375 0.394531 6.375 0 C 5.75 -0.3125 5.171875 -0.691406 4.640625 -1.140625 C 4.523438 -1.253906 4.394531 -1.3125 4.25 -1.3125 C 4.050781 -1.3125 3.875 -1.171875 3.71875 -0.890625 C 3.5625 -0.609375 3.441406 -0.210938 3.359375 0.296875 L 2.375 0.296875 C 2.488281 -1.316406 2.546875 -4.148438 2.546875 -8.203125 L 3.53125 -8.203125 C 3.84375 -5.535156 4.410156 -3.539062 5.234375 -2.21875 C 6.054688 -0.90625 7.457031 -0.25 9.4375 -0.25 C 10.4375 -0.25 11.316406 -0.578125 12.078125 -1.234375 C 12.847656 -1.890625 13.234375 -2.910156 13.234375 -4.296875 C 13.234375 -5.398438 12.851562 -6.332031 12.09375 -7.09375 C 11.34375 -7.863281 10.117188 -8.789062 8.421875 -9.875 C 7.035156 -10.75 5.960938 -11.46875 5.203125 -12.03125 C 4.453125 -12.601562 3.820312 -13.300781 3.3125 -14.125 C 2.800781 -14.945312 2.546875 -15.910156 2.546875 -17.015625 C 2.546875 -18.796875 3.140625 -20.15625 4.328125 -21.09375 C 5.523438 -22.03125 7.03125 -22.5 8.84375 -22.5 Z M 8.84375 -22.5 "/></g></g></g><g fill="#1a2f4f" fill-opacity="1"><g transform="translate(252.311064, 194.811824)"><g><path d="M 33.890625 -3.953125 C 33.890625 -2.796875 34.128906 -1.992188 34.609375 -1.546875 C 35.097656 -1.109375 35.9375 -0.890625 37.125 -0.890625 L 37.125 0 C 34.519531 -0.113281 32.820312 -0.171875 32.03125 -0.171875 C 31.226562 -0.171875 29.640625 -0.113281 27.265625 0 L 27.265625 -0.890625 C 28.316406 -0.890625 29.046875 -1.109375 29.453125 -1.546875 C 29.859375 -1.992188 30.0625 -2.796875 30.0625 -3.953125 L 30.0625 -16.25 C 30.0625 -17.320312 30 -18.191406 29.875 -18.859375 C 29.75 -19.523438 29.453125 -20.070312 28.984375 -20.5 C 28.515625 -20.925781 27.800781 -21.140625 26.84375 -21.140625 C 25.757812 -21.140625 24.773438 -20.796875 23.890625 -20.109375 C 23.015625 -19.429688 22.328125 -18.503906 21.828125 -17.328125 C 21.335938 -16.148438 21.09375 -14.851562 21.09375 -13.4375 L 21.09375 -3.953125 C 21.09375 -2.796875 21.332031 -1.992188 21.8125 -1.546875 C 22.300781 -1.109375 23.140625 -0.890625 24.328125 -0.890625 L 24.328125 0 C 21.722656 -0.113281 20.019531 -0.171875 19.21875 -0.171875 C 18.425781 -0.171875 16.835938 -0.113281 14.453125 0 L 14.453125 -0.890625 C 15.503906 -0.890625 16.234375 -1.109375 16.640625 -1.546875 C 17.054688 -1.992188 17.265625 -2.796875 17.265625 -3.953125 L 17.265625 -16.25 C 17.265625 -17.320312 17.203125 -18.191406 17.078125 -18.859375 C 16.953125 -19.523438 16.65625 -20.070312 16.1875 -20.5 C 15.71875 -20.925781 15 -21.140625 14.03125 -21.140625 C 12.957031 -21.140625 11.976562 -20.796875 11.09375 -20.109375 C 10.21875 -19.429688 9.53125 -18.5 9.03125 -17.3125 C 8.539062 -16.125 8.296875 -14.816406 8.296875 -13.390625 L 8.296875 -3.953125 C 8.296875 -2.796875 8.5 -1.992188 8.90625 -1.546875 C 9.320312 -1.109375 10.050781 -0.890625 11.09375 -0.890625 L 11.09375 0 C 8.71875 -0.113281 7.132812 -0.171875 6.34375 -0.171875 C 5.539062 -0.171875 3.835938 -0.113281 1.234375 0 L 1.234375 -0.890625 C 2.421875 -0.890625 3.253906 -1.109375 3.734375 -1.546875 C 4.222656 -1.992188 4.46875 -2.796875 4.46875 -3.953125 L 4.46875 -17.265625 C 4.46875 -18.566406 4.222656 -19.515625 3.734375 -20.109375 C 3.253906 -20.710938 2.421875 -21.015625 1.234375 -21.015625 L 1.234375 -21.90625 C 2.140625 -21.820312 3.019531 -21.78125 3.875 -21.78125 C 5.65625 -21.78125 7.128906 -21.976562 8.296875 -22.375 L 8.296875 -17.359375 C 8.972656 -19.109375 9.9375 -20.398438 11.1875 -21.234375 C 12.4375 -22.078125 13.796875 -22.5 15.265625 -22.5 C 17.191406 -22.5 18.664062 -21.960938 19.6875 -20.890625 C 20.394531 -20.148438 20.835938 -19.015625 21.015625 -17.484375 C 21.722656 -19.265625 22.695312 -20.546875 23.9375 -21.328125 C 25.1875 -22.109375 26.566406 -22.5 28.078125 -22.5 C 30.003906 -22.5 31.476562 -21.960938 32.5 -20.890625 C 33.007812 -20.316406 33.367188 -19.585938 33.578125 -18.703125 C 33.785156 -17.828125 33.890625 -16.695312 33.890625 -15.3125 Z M 33.890625 -3.953125 "/></g></g></g><g fill="#1a2f4f" fill-opacity="1"><g transform="translate(288.809449, 194.811824)"><g><path d="M 6.9375 0.296875 C 5.144531 0.296875 3.816406 -0.144531 2.953125 -1.03125 C 2.085938 -1.925781 1.65625 -3.171875 1.65625 -4.765625 C 1.65625 -6.035156 2.003906 -7.082031 2.703125 -7.90625 C 3.398438 -8.726562 4.222656 -9.378906 5.171875 -9.859375 C 6.117188 -10.347656 7.375 -10.859375 8.9375 -11.390625 C 10.519531 -11.929688 11.691406 -12.425781 12.453125 -12.875 C 13.222656 -13.332031 13.609375 -13.945312 13.609375 -14.71875 L 13.609375 -17.359375 C 13.609375 -18.992188 13.257812 -20.113281 12.5625 -20.71875 C 11.875 -21.332031 10.90625 -21.640625 9.65625 -21.640625 C 7.664062 -21.640625 6.257812 -21.132812 5.4375 -20.125 C 6.007812 -19.976562 6.484375 -19.675781 6.859375 -19.21875 C 7.242188 -18.769531 7.4375 -18.203125 7.4375 -17.515625 C 7.4375 -16.804688 7.207031 -16.242188 6.75 -15.828125 C 6.300781 -15.421875 5.722656 -15.21875 5.015625 -15.21875 C 4.222656 -15.21875 3.628906 -15.46875 3.234375 -15.96875 C 2.835938 -16.46875 2.640625 -17.070312 2.640625 -17.78125 C 2.640625 -18.457031 2.800781 -19.019531 3.125 -19.46875 C 3.445312 -19.925781 3.9375 -20.382812 4.59375 -20.84375 C 5.269531 -21.320312 6.132812 -21.71875 7.1875 -22.03125 C 8.238281 -22.34375 9.390625 -22.5 10.640625 -22.5 C 12.847656 -22.5 14.519531 -21.972656 15.65625 -20.921875 C 16.363281 -20.273438 16.835938 -19.488281 17.078125 -18.5625 C 17.316406 -17.644531 17.4375 -16.429688 17.4375 -14.921875 L 17.4375 -3.109375 C 17.4375 -2.398438 17.535156 -1.890625 17.734375 -1.578125 C 17.929688 -1.265625 18.269531 -1.109375 18.75 -1.109375 C 19.09375 -1.109375 19.410156 -1.1875 19.703125 -1.34375 C 20.003906 -1.5 20.328125 -1.71875 20.671875 -2 L 21.140625 -1.28125 C 20.398438 -0.707031 19.765625 -0.300781 19.234375 -0.0625 C 18.710938 0.175781 18.054688 0.296875 17.265625 0.296875 C 15.898438 0.296875 14.945312 -0.0390625 14.40625 -0.71875 C 13.875 -1.40625 13.609375 -2.328125 13.609375 -3.484375 C 12.753906 -2.066406 11.773438 -1.082031 10.671875 -0.53125 C 9.566406 0.0195312 8.320312 0.296875 6.9375 0.296875 Z M 8.796875 -1.40625 C 10.671875 -1.40625 12.273438 -2.484375 13.609375 -4.640625 L 13.609375 -12.96875 C 13.359375 -12.570312 13.003906 -12.242188 12.546875 -11.984375 C 12.085938 -11.734375 11.394531 -11.394531 10.46875 -10.96875 C 9.382812 -10.519531 8.507812 -10.085938 7.84375 -9.671875 C 7.175781 -9.265625 6.601562 -8.707031 6.125 -8 C 5.644531 -7.289062 5.40625 -6.382812 5.40625 -5.28125 C 5.40625 -4 5.710938 -3.03125 6.328125 -2.375 C 6.953125 -1.726562 7.773438 -1.40625 8.796875 -1.40625 Z M 8.796875 -1.40625 "/></g></g></g><g fill="#1a2f4f" fill-opacity="1"><g transform="translate(308.717664, 194.811824)"><g><path d="M 15.53125 -22.5 C 17.507812 -22.5 19.007812 -21.960938 20.03125 -20.890625 C 20.570312 -20.316406 20.953125 -19.601562 21.171875 -18.75 C 21.398438 -17.90625 21.515625 -16.757812 21.515625 -15.3125 L 21.515625 -3.953125 C 21.515625 -2.796875 21.753906 -1.992188 22.234375 -1.546875 C 22.722656 -1.109375 23.5625 -0.890625 24.75 -0.890625 L 24.75 0 C 22.144531 -0.113281 20.445312 -0.171875 19.65625 -0.171875 C 18.851562 -0.171875 17.265625 -0.113281 14.890625 0 L 14.890625 -0.890625 C 15.929688 -0.890625 16.65625 -1.109375 17.0625 -1.546875 C 17.476562 -1.992188 17.6875 -2.796875 17.6875 -3.953125 L 17.6875 -16.25 C 17.6875 -17.832031 17.457031 -19.039062 17 -19.875 C 16.550781 -20.71875 15.632812 -21.140625 14.25 -21.140625 C 13.082031 -21.140625 12.046875 -20.796875 11.140625 -20.109375 C 10.234375 -19.429688 9.53125 -18.503906 9.03125 -17.328125 C 8.539062 -16.148438 8.296875 -14.835938 8.296875 -13.390625 L 8.296875 -3.953125 C 8.296875 -2.796875 8.5 -1.992188 8.90625 -1.546875 C 9.320312 -1.109375 10.050781 -0.890625 11.09375 -0.890625 L 11.09375 0 C 8.71875 -0.113281 7.132812 -0.171875 6.34375 -0.171875 C 5.539062 -0.171875 3.835938 -0.113281 1.234375 0 L 1.234375 -0.890625 C 2.421875 -0.890625 3.253906 -1.109375 3.734375 -1.546875 C 4.222656 -1.992188 4.46875 -2.796875 4.46875 -3.953125 L 4.46875 -17.265625 C 4.46875 -18.566406 4.222656 -19.515625 3.734375 -20.109375 C 3.253906 -20.710938 2.421875 -21.015625 1.234375 -21.015625 L 1.234375 -21.90625 C 2.140625 -21.820312 3.019531 -21.78125 3.875 -21.78125 C 5.65625 -21.78125 7.128906 -21.976562 8.296875 -22.375 L 8.296875 -17.359375 C 9.003906 -19.171875 9.988281 -20.476562 11.25 -21.28125 C 12.507812 -22.09375 13.9375 -22.5 15.53125 -22.5 Z M 15.53125 -22.5 "/></g></g></g><g fill="#1a2f4f" fill-opacity="1"><g transform="translate(153.229784, 229.201245)"><g><path d="M 3.328125 -1.46875 L 8.171875 -1.46875 L 8.171875 0 L 1.53125 0 L 1.53125 -13.8125 L 3.328125 -13.8125 Z M 3.328125 -1.46875 "/></g></g></g><g fill="#1a2f4f" fill-opacity="1"><g transform="translate(166.356662, 229.201245)"><g><path d="M 0.859375 -6.921875 C 0.859375 -8.265625 1.160156 -9.472656 1.765625 -10.546875 C 2.367188 -11.628906 3.195312 -12.472656 4.25 -13.078125 C 5.300781 -13.691406 6.46875 -14 7.75 -14 C 9.257812 -14 10.578125 -13.632812 11.703125 -12.90625 C 12.828125 -12.175781 13.644531 -11.144531 14.15625 -9.8125 L 12 -9.8125 C 11.613281 -10.644531 11.0625 -11.285156 10.34375 -11.734375 C 9.625 -12.179688 8.757812 -12.40625 7.75 -12.40625 C 6.789062 -12.40625 5.925781 -12.179688 5.15625 -11.734375 C 4.382812 -11.285156 3.78125 -10.644531 3.34375 -9.8125 C 2.914062 -8.988281 2.703125 -8.023438 2.703125 -6.921875 C 2.703125 -5.828125 2.914062 -4.863281 3.34375 -4.03125 C 3.78125 -3.207031 4.382812 -2.570312 5.15625 -2.125 C 5.925781 -1.675781 6.789062 -1.453125 7.75 -1.453125 C 8.757812 -1.453125 9.625 -1.671875 10.34375 -2.109375 C 11.0625 -2.554688 11.613281 -3.195312 12 -4.03125 L 14.15625 -4.03125 C 13.644531 -2.707031 12.828125 -1.679688 11.703125 -0.953125 C 10.578125 -0.234375 9.257812 0.125 7.75 0.125 C 6.46875 0.125 5.300781 -0.175781 4.25 -0.78125 C 3.195312 -1.382812 2.367188 -2.21875 1.765625 -3.28125 C 1.160156 -4.351562 0.859375 -5.566406 0.859375 -6.921875 Z M 0.859375 -6.921875 "/></g></g></g><g fill="#1a2f4f" fill-opacity="1"><g transform="translate(186.225104, 229.201245)"><g><path d="M 5.90625 0.140625 C 5 0.140625 4.179688 -0.0195312 3.453125 -0.34375 C 2.734375 -0.664062 2.171875 -1.113281 1.765625 -1.6875 C 1.359375 -2.269531 1.144531 -2.9375 1.125 -3.6875 L 3.046875 -3.6875 C 3.117188 -3.039062 3.390625 -2.492188 3.859375 -2.046875 C 4.328125 -1.609375 5.007812 -1.390625 5.90625 -1.390625 C 6.769531 -1.390625 7.445312 -1.601562 7.9375 -2.03125 C 8.4375 -2.457031 8.6875 -3.007812 8.6875 -3.6875 C 8.6875 -4.21875 8.539062 -4.644531 8.25 -4.96875 C 7.957031 -5.300781 7.59375 -5.550781 7.15625 -5.71875 C 6.71875 -5.894531 6.128906 -6.082031 5.390625 -6.28125 C 4.484375 -6.519531 3.753906 -6.757812 3.203125 -7 C 2.648438 -7.238281 2.175781 -7.613281 1.78125 -8.125 C 1.394531 -8.632812 1.203125 -9.316406 1.203125 -10.171875 C 1.203125 -10.921875 1.394531 -11.585938 1.78125 -12.171875 C 2.164062 -12.753906 2.703125 -13.203125 3.390625 -13.515625 C 4.085938 -13.835938 4.890625 -14 5.796875 -14 C 7.085938 -14 8.144531 -13.675781 8.96875 -13.03125 C 9.800781 -12.382812 10.269531 -11.523438 10.375 -10.453125 L 8.390625 -10.453125 C 8.316406 -10.984375 8.035156 -11.445312 7.546875 -11.84375 C 7.066406 -12.25 6.421875 -12.453125 5.609375 -12.453125 C 4.859375 -12.453125 4.242188 -12.253906 3.765625 -11.859375 C 3.285156 -11.472656 3.046875 -10.929688 3.046875 -10.234375 C 3.046875 -9.734375 3.1875 -9.320312 3.46875 -9 C 3.757812 -8.6875 4.113281 -8.445312 4.53125 -8.28125 C 4.945312 -8.113281 5.53125 -7.925781 6.28125 -7.71875 C 7.195312 -7.46875 7.929688 -7.21875 8.484375 -6.96875 C 9.035156 -6.726562 9.507812 -6.351562 9.90625 -5.84375 C 10.3125 -5.332031 10.515625 -4.640625 10.515625 -3.765625 C 10.515625 -3.085938 10.332031 -2.453125 9.96875 -1.859375 C 9.613281 -1.265625 9.085938 -0.78125 8.390625 -0.40625 C 7.691406 -0.0390625 6.863281 0.140625 5.90625 0.140625 Z M 5.90625 0.140625 "/></g></g></g><g fill="#1a2f4f" fill-opacity="1"><g transform="translate(202.425351, 229.201245)"><g><path d="M 18.890625 -13.8125 L 14.890625 0 L 12.875 0 L 9.65625 -11.125 L 6.328125 0 L 4.328125 0.015625 L 0.453125 -13.8125 L 2.375 -13.8125 L 5.390625 -2.109375 L 8.71875 -13.8125 L 10.75 -13.8125 L 13.921875 -2.140625 L 16.953125 -13.8125 Z M 18.890625 -13.8125 "/></g></g></g></svg>