<svg xmlns="http://www.w3.org/2000/svg" xmlns:xlink="http://www.w3.org/1999/xlink" width="500" zoomAndPan="magnify" viewBox="0 0 375 374.999991" height="500" preserveAspectRatio="xMidYMid meet" version="1.0"><defs><g/><clipPath id="41102e50fe"><path d="M 153.523438 150.578125 L 221.476562 150.578125 L 221.476562 208.542969 L 153.523438 208.542969 Z M 153.523438 150.578125 " clip-rule="nonzero"/></clipPath><clipPath id="dc36e317c5"><path d="M 153.523438 150.585938 L 221.773438 150.585938 L 221.773438 208.324219 L 153.523438 208.324219 Z M 153.523438 150.585938 " clip-rule="nonzero"/></clipPath></defs><rect x="-37.5" width="450" fill="#ffffff" y="-37.499999" height="449.999989" fill-opacity="1"/><rect x="-37.5" width="450" fill="#ffffff" y="-37.499999" height="449.999989" fill-opacity="1"/><g clip-path="url(#41102e50fe)"><path fill="#ffffff" d="M 153.523438 150.578125 L 222.078125 150.578125 L 222.078125 208.585938 L 153.523438 208.585938 Z M 153.523438 150.578125 " fill-opacity="1" fill-rule="nonzero"/></g><g clip-path="url(#dc36e317c5)"><path stroke-linecap="butt" transform="matrix(0.753363, 0, 0, 0.747271, 153.522064, 150.584155)" fill="none" stroke-linejoin="miter" d="M 0.00182313 0.00238547 L 90.595578 0.00238547 L 90.595578 77.267953 L 0.00182313 77.267953 L 0.00182313 0.00238547 " stroke="#1a2f4f" stroke-width="2" stroke-opacity="1" stroke-miterlimit="4"/></g><g fill="#1a2f4f" fill-opacity="1"><g transform="translate(161.542511, 190.126768)"><g><path d="M 31.703125 -3.703125 C 31.703125 -2.609375 31.925781 -1.851562 32.375 -1.4375 C 32.832031 -1.03125 33.617188 -0.828125 34.734375 -0.828125 L 34.734375 0 C 32.285156 -0.101562 30.691406 -0.15625 29.953125 -0.15625 C 29.210938 -0.15625 27.726562 -0.101562 25.5 0 L 25.5 -0.828125 C 26.476562 -0.828125 27.160156 -1.03125 27.546875 -1.4375 C 27.929688 -1.851562 28.125 -2.609375 28.125 -3.703125 L 28.125 -15.203125 C 28.125 -16.203125 28.0625 -17.015625 27.9375 -17.640625 C 27.820312 -18.265625 27.546875 -18.773438 27.109375 -19.171875 C 26.671875 -19.566406 26.003906 -19.765625 25.109375 -19.765625 C 24.097656 -19.765625 23.179688 -19.445312 22.359375 -18.8125 C 21.535156 -18.175781 20.890625 -17.304688 20.421875 -16.203125 C 19.960938 -15.109375 19.734375 -13.898438 19.734375 -12.578125 L 19.734375 -3.703125 C 19.734375 -2.609375 19.957031 -1.851562 20.40625 -1.4375 C 20.851562 -1.03125 21.632812 -0.828125 22.75 -0.828125 L 22.75 0 C 20.3125 -0.101562 18.722656 -0.15625 17.984375 -0.15625 C 17.242188 -0.15625 15.757812 -0.101562 13.53125 0 L 13.53125 -0.828125 C 14.507812 -0.828125 15.191406 -1.03125 15.578125 -1.4375 C 15.960938 -1.851562 16.15625 -2.609375 16.15625 -3.703125 L 16.15625 -15.203125 C 16.15625 -16.203125 16.09375 -17.015625 15.96875 -17.640625 C 15.851562 -18.265625 15.578125 -18.773438 15.140625 -19.171875 C 14.703125 -19.566406 14.03125 -19.765625 13.125 -19.765625 C 12.113281 -19.765625 11.195312 -19.445312 10.375 -18.8125 C 9.5625 -18.175781 8.921875 -17.300781 8.453125 -16.1875 C 7.984375 -15.070312 7.75 -13.851562 7.75 -12.53125 L 7.75 -3.703125 C 7.75 -2.609375 7.941406 -1.851562 8.328125 -1.4375 C 8.710938 -1.03125 9.398438 -0.828125 10.390625 -0.828125 L 10.390625 0 C 8.160156 -0.101562 6.671875 -0.15625 5.921875 -0.15625 C 5.179688 -0.15625 3.59375 -0.101562 1.15625 0 L 1.15625 -0.828125 C 2.269531 -0.828125 3.050781 -1.03125 3.5 -1.4375 C 3.945312 -1.851562 4.171875 -2.609375 4.171875 -3.703125 L 4.171875 -16.15625 C 4.171875 -17.375 3.945312 -18.257812 3.5 -18.8125 C 3.050781 -19.375 2.269531 -19.65625 1.15625 -19.65625 L 1.15625 -20.484375 C 2 -20.410156 2.820312 -20.375 3.625 -20.375 C 5.289062 -20.375 6.664062 -20.554688 7.75 -20.921875 L 7.75 -16.234375 C 8.394531 -17.878906 9.300781 -19.09375 10.46875 -19.875 C 11.632812 -20.65625 12.90625 -21.046875 14.28125 -21.046875 C 16.082031 -21.046875 17.460938 -20.539062 18.421875 -19.53125 C 19.078125 -18.84375 19.488281 -17.78125 19.65625 -16.34375 C 20.3125 -18.019531 21.222656 -19.222656 22.390625 -19.953125 C 23.554688 -20.679688 24.84375 -21.046875 26.25 -21.046875 C 28.050781 -21.046875 29.429688 -20.539062 30.390625 -19.53125 C 30.867188 -19 31.207031 -18.320312 31.40625 -17.5 C 31.601562 -16.675781 31.703125 -15.617188 31.703125 -14.328125 Z M 31.703125 -3.703125 "/></g></g></g><g fill="#1a2f4f" fill-opacity="1"><g transform="translate(195.668754, 190.126768)"><g><path d="M 8.28125 -21.046875 C 9.226562 -21.046875 10.070312 -20.898438 10.8125 -20.609375 C 11.5625 -20.316406 12.160156 -19.972656 12.609375 -19.578125 C 12.898438 -19.359375 13.140625 -19.25 13.328125 -19.25 C 13.804688 -19.25 14.097656 -19.832031 14.203125 -21 L 15.109375 -21 C 15.003906 -19.707031 14.953125 -17.453125 14.953125 -14.234375 L 14.046875 -14.234375 C 13.753906 -15.992188 13.1875 -17.441406 12.34375 -18.578125 C 11.507812 -19.710938 10.269531 -20.28125 8.625 -20.28125 C 7.675781 -20.28125 6.894531 -20.007812 6.28125 -19.46875 C 5.675781 -18.925781 5.375 -18.175781 5.375 -17.21875 C 5.375 -16.289062 5.691406 -15.515625 6.328125 -14.890625 C 6.960938 -14.273438 7.984375 -13.53125 9.390625 -12.65625 C 9.628906 -12.519531 9.988281 -12.289062 10.46875 -11.96875 C 11.6875 -11.175781 12.664062 -10.472656 13.40625 -9.859375 C 14.144531 -9.253906 14.742188 -8.550781 15.203125 -7.75 C 15.671875 -6.957031 15.90625 -6.046875 15.90625 -5.015625 C 15.90625 -3.265625 15.25 -1.894531 13.9375 -0.90625 C 12.625 0.0703125 11.015625 0.5625 9.109375 0.5625 C 7.910156 0.5625 6.863281 0.375 5.96875 0 C 5.382812 -0.289062 4.84375 -0.648438 4.34375 -1.078125 C 4.226562 -1.179688 4.109375 -1.234375 3.984375 -1.234375 C 3.796875 -1.234375 3.628906 -1.097656 3.484375 -0.828125 C 3.335938 -0.566406 3.222656 -0.195312 3.140625 0.28125 L 2.234375 0.28125 C 2.335938 -1.226562 2.390625 -3.878906 2.390625 -7.671875 L 3.296875 -7.671875 C 3.585938 -5.179688 4.117188 -3.316406 4.890625 -2.078125 C 5.660156 -0.847656 6.972656 -0.234375 8.828125 -0.234375 C 9.753906 -0.234375 10.578125 -0.535156 11.296875 -1.140625 C 12.015625 -1.753906 12.375 -2.710938 12.375 -4.015625 C 12.375 -5.046875 12.019531 -5.921875 11.3125 -6.640625 C 10.613281 -7.359375 9.46875 -8.222656 7.875 -9.234375 C 6.570312 -10.054688 5.566406 -10.726562 4.859375 -11.25 C 4.160156 -11.78125 3.570312 -12.429688 3.09375 -13.203125 C 2.625 -13.972656 2.390625 -14.875 2.390625 -15.90625 C 2.390625 -17.582031 2.945312 -18.859375 4.0625 -19.734375 C 5.175781 -20.609375 6.582031 -21.046875 8.28125 -21.046875 Z M 8.28125 -21.046875 "/></g></g></g></svg>